<svg width="328" height="151" viewBox="0 0 328 151" fill="none" xmlns="http://www.w3.org/2000/svg">
<rect width="328" height="151" rx="24" fill="#1F1F1F"/>
<path d="M18.144 119.752C16.4373 119.752 14.9867 119.197 13.792 118.088C12.5973 116.979 12 115.656 12 114.12V35.784C12 34.1627 12.5973 32.84 13.792 31.816C14.9867 30.7067 16.4373 30.152 18.144 30.152H53.728C61.152 30.152 67.04 32.3707 71.392 36.808C75.8293 41.2453 78.048 47.2187 78.048 54.728C78.048 58.7387 76.9813 62.4933 74.848 65.992C72.7363 69.4552 69.9976 72.0404 66.6317 73.7478C66.5683 73.7799 66.528 73.8449 66.528 73.9161V73.9161C66.528 73.9991 66.583 74.0723 66.6625 74.0965C71.4612 75.5533 75.1711 78.0571 77.792 81.608C80.4373 85.1067 81.76 89.3733 81.76 94.408C81.76 99.3573 80.6933 103.752 78.56 107.592C76.512 111.432 73.6107 114.419 69.856 116.552C66.1013 118.685 61.792 119.752 56.928 119.752H18.144ZM53.472 69.704C56.9707 69.704 59.9573 68.296 62.432 65.48C64.992 62.5787 66.272 59.08 66.272 54.984C66.272 50.4613 65.12 46.92 62.816 44.36C60.5973 41.8 57.4827 40.52 53.472 40.52H24.904C24.3517 40.52 23.904 40.9677 23.904 41.52V68.704C23.904 69.2563 24.3517 69.704 24.904 69.704H53.472ZM56.032 109.384C60.384 109.384 63.7973 108.104 66.272 105.544C68.7467 102.899 69.984 99.2293 69.984 94.536C69.984 90.0133 68.7467 86.472 66.272 83.912C63.8827 81.352 60.4693 80.072 56.032 80.072H24.904C24.3517 80.072 23.904 80.5197 23.904 81.072V108.384C23.904 108.936 24.3517 109.384 24.904 109.384H56.032Z" fill="white"/>
<path d="M166.765 64.072C166.765 58.0588 170.015 54.9087 176.515 54.6216C177.067 54.5972 177.517 55.0477 177.517 55.6V62.3778C177.517 62.643 177.41 62.896 177.23 63.0905C176.572 63.8003 175.827 64.7706 174.995 66.0014C174.898 66.1444 174.917 66.3358 175.039 66.4578V66.4578C175.197 66.616 175.459 66.5942 175.592 66.4142C178.117 62.9889 181.362 60.2029 185.325 58.056C189.421 55.752 193.858 54.6 198.637 54.6C205.549 54.6 211.01 56.648 215.021 60.744C219.032 64.84 221.037 70.1307 221.037 76.616V112.712C221.037 115.528 220.098 117.619 218.221 118.984C216.592 120.148 214.152 120.782 210.901 120.888C210.349 120.906 209.901 120.456 209.901 119.904V77.768C209.901 73.672 208.749 70.4293 206.445 68.04C204.141 65.6507 200.642 64.456 195.949 64.456C192.792 64.456 189.805 65.1387 186.989 66.504C184.258 67.784 182.04 69.576 180.333 71.88C178.712 74.0987 177.901 76.5307 177.901 79.176V112.712C177.901 115.528 176.962 117.619 175.085 118.984C173.456 120.148 171.016 120.782 167.765 120.888C167.213 120.906 166.765 120.456 166.765 119.904V64.072Z" fill="white"/>
<path d="M262.484 120.904C261.375 120.904 260.18 120.691 258.9 120.264C257.923 120.003 257.07 119.594 256.342 119.035C255.952 118.736 255.913 118.179 256.203 117.781L278.831 86.6674C279.083 86.321 279.086 85.8526 278.839 85.5027L258.907 57.256C258.612 56.8377 258.678 56.257 259.115 55.9901C259.692 55.6378 260.388 55.3451 261.204 55.112C262.484 54.7707 263.636 54.6 264.66 54.6C267.903 54.6 270.292 55.752 271.828 58.056L284.757 77.3253C284.988 77.6691 284.983 78.1195 284.745 78.458L282.928 81.0398C282.804 81.2153 282.839 81.4565 283.006 81.5905V81.5905C283.191 81.7381 283.462 81.6975 283.595 81.5024L299.604 58.056C300.372 56.9467 301.396 56.0933 302.676 55.496C304.041 54.8987 305.492 54.6 307.028 54.6C308.052 54.6 309.161 54.7707 310.356 55.112C311.171 55.3448 311.866 55.637 312.443 55.9888C312.881 56.256 312.946 56.8383 312.649 57.2566L292.595 85.5037C292.347 85.853 292.349 86.3215 292.6 86.6686L315.131 117.817C315.407 118.199 315.385 118.73 315.024 119.034C314.361 119.593 313.573 120.003 312.66 120.264C311.551 120.691 310.484 120.904 309.46 120.904C308.095 120.904 306.729 120.605 305.364 120.008C303.999 119.496 303.017 118.771 302.42 117.832L286.48 94.591C286.082 94.0106 285.225 94.0121 284.828 94.5939L269.012 117.832C268.329 118.856 267.391 119.624 266.196 120.136C265.001 120.648 263.764 120.904 262.484 120.904Z" fill="white"/>
<path d="M240.968 45C238.579 45 236.573 44.232 234.952 42.696C233.331 41.16 232.52 39.24 232.52 36.936C232.52 34.632 233.331 32.7547 234.952 31.304C236.573 29.768 238.579 29 240.968 29C243.272 29 245.235 29.768 246.856 31.304C248.477 32.7547 249.288 34.632 249.288 36.936C249.288 39.24 248.477 41.16 246.856 42.696C245.235 44.232 243.272 45 240.968 45Z" fill="#FF7B00"/>
<path d="M99.828 45C97.4387 45 95.4333 44.232 93.812 42.696C92.1907 41.16 91.38 39.24 91.38 36.936C91.38 34.632 92.1907 32.7547 93.812 31.304C95.4333 29.768 97.4387 29 99.828 29C102.132 29 104.095 29.768 105.716 31.304C107.337 32.7547 108.148 34.632 108.148 36.936C108.148 39.24 107.337 41.16 105.716 42.696C104.095 44.232 102.132 45 99.828 45Z" fill="#FF7B00"/>
<path d="M146.482 120.904C140.423 120.904 135.901 119.197 132.914 115.784C129.927 112.285 128.434 107.72 128.434 102.088V65.712C128.434 65.1597 127.986 64.712 127.434 64.712H117.53C116.978 64.712 116.526 64.2636 116.557 63.7122C116.69 61.2959 117.321 59.4105 118.45 58.056C119.73 56.52 121.479 55.752 123.698 55.752H127.562C128.114 55.752 128.562 55.3043 128.562 54.752V43.592C128.562 40.776 129.458 38.728 131.25 37.448C132.953 36.2096 135.393 35.5328 138.57 35.4177C139.122 35.3977 139.57 35.8477 139.57 36.4V54.752C139.57 55.3043 140.018 55.752 140.57 55.752H155.594C156.146 55.752 156.598 56.2012 156.567 56.7527C156.276 62.0589 153.597 64.712 148.53 64.712H140.698C140.146 64.712 139.698 65.1597 139.698 65.712V101.704C139.698 105.117 140.295 107.549 141.49 109C142.77 110.365 145.031 111.048 148.274 111.048C151.009 111.048 153.6 110.404 156.049 109.116C156.45 108.905 156.954 108.962 157.226 109.325C157.999 110.357 158.386 111.656 158.386 113.224C158.386 115.272 157.319 117.064 155.186 118.6C153.053 120.136 150.151 120.904 146.482 120.904Z" fill="white"/>
<path d="M94.196 62.792C94.196 59.976 95.092 57.928 96.884 56.648C98.5908 55.4067 101.073 54.7297 104.332 54.6169C104.884 54.5978 105.332 55.0477 105.332 55.6V112.712C105.332 115.528 104.393 117.619 102.516 118.984C100.887 120.148 98.447 120.782 95.1961 120.888C94.6441 120.906 94.196 120.456 94.196 119.904V62.792Z" fill="white"/>
<path d="M235.336 62.792C235.336 59.976 236.232 57.928 238.024 56.648C239.731 55.4067 242.213 54.7297 245.472 54.6169C246.024 54.5978 246.472 55.0477 246.472 55.6V112.712C246.472 115.528 245.533 117.619 243.656 118.984C242.027 120.148 239.587 120.782 236.336 120.888C235.784 120.906 235.336 120.456 235.336 119.904V62.792Z" fill="white"/>
</svg>
