<svg width="304" height="92" viewBox="0 0 304 92" fill="none" xmlns="http://www.w3.org/2000/svg">
<path d="M6.144 90.752C4.43733 90.752 2.98667 90.1973 1.792 89.088C0.597334 87.9787 0 86.656 0 85.12V6.784C0 5.16267 0.597334 3.84 1.792 2.816C2.98667 1.70667 4.43733 1.152 6.144 1.152H41.728C49.152 1.152 55.04 3.37067 59.392 7.80801C63.8293 12.2453 66.048 18.2187 66.048 25.728C66.048 29.7387 64.9813 33.4933 62.848 36.992C60.7363 40.4552 57.9976 43.0404 54.6317 44.7478C54.5683 44.7799 54.528 44.8449 54.528 44.9161V44.9161C54.528 44.9991 54.583 45.0723 54.6625 45.0965C59.4612 46.5533 63.1711 49.0571 65.792 52.608C68.4373 56.1067 69.76 60.3733 69.76 65.408C69.76 70.3573 68.6933 74.752 66.56 78.592C64.512 82.432 61.6107 85.4187 57.856 87.552C54.1013 89.6853 49.792 90.752 44.928 90.752H6.144ZM41.472 40.704C44.9707 40.704 47.9573 39.296 50.432 36.48C52.992 33.5787 54.272 30.08 54.272 25.984C54.272 21.4613 53.12 17.92 50.816 15.36C48.5973 12.8 45.4827 11.52 41.472 11.52H12.904C12.3517 11.52 11.904 11.9677 11.904 12.52V39.704C11.904 40.2563 12.3517 40.704 12.904 40.704H41.472ZM44.032 80.384C48.384 80.384 51.7973 79.104 54.272 76.544C56.7467 73.8987 57.984 70.2293 57.984 65.536C57.984 61.0133 56.7467 57.472 54.272 54.912C51.8827 52.352 48.4693 51.072 44.032 51.072H12.904C12.3517 51.072 11.904 51.5197 11.904 52.072V79.384C11.904 79.9363 12.3517 80.384 12.904 80.384H44.032Z" fill="white"/>
<path d="M154.765 35.072C154.765 29.0588 158.015 25.9087 164.515 25.6216C165.067 25.5972 165.517 26.0477 165.517 26.6V33.3778C165.517 33.643 165.41 33.896 165.23 34.0905C164.572 34.8003 163.827 35.7706 162.995 37.0014C162.898 37.1444 162.917 37.3358 163.039 37.4578V37.4578C163.197 37.616 163.459 37.5942 163.592 37.4142C166.117 33.9889 169.362 31.2029 173.325 29.056C177.421 26.752 181.858 25.6 186.637 25.6C193.549 25.6 199.01 27.648 203.021 31.744C207.032 35.84 209.037 41.1307 209.037 47.616V83.712C209.037 86.528 208.098 88.6187 206.221 89.984C204.592 91.1476 202.152 91.7823 198.901 91.8881C198.349 91.9061 197.901 91.4563 197.901 90.904V48.768C197.901 44.672 196.749 41.4293 194.445 39.04C192.141 36.6507 188.642 35.456 183.949 35.456C180.792 35.456 177.805 36.1387 174.989 37.504C172.258 38.784 170.04 40.576 168.333 42.88C166.712 45.0987 165.901 47.5307 165.901 50.176V83.712C165.901 86.528 164.962 88.6187 163.085 89.984C161.456 91.1476 159.016 91.7823 155.765 91.8881C155.213 91.9061 154.765 91.4563 154.765 90.904V35.072Z" fill="white"/>
<path d="M250.484 91.904C249.375 91.904 248.18 91.6907 246.9 91.264C245.923 91.0035 245.07 90.5938 244.342 90.035C243.952 89.7355 243.913 89.1789 244.203 88.7809L266.831 57.6674C267.083 57.321 267.086 56.8526 266.839 56.5027L246.907 28.256C246.612 27.8377 246.678 27.257 247.115 26.9901C247.692 26.6378 248.388 26.3451 249.204 26.112C250.484 25.7707 251.636 25.6 252.66 25.6C255.903 25.6 258.292 26.752 259.828 29.056L272.757 48.3253C272.988 48.6691 272.983 49.1195 272.745 49.458L270.928 52.0398C270.804 52.2153 270.839 52.4565 271.006 52.5905V52.5905C271.191 52.7381 271.462 52.6975 271.595 52.5024L287.604 29.056C288.372 27.9467 289.396 27.0933 290.676 26.496C292.041 25.8987 293.492 25.6 295.028 25.6C296.052 25.6 297.161 25.7707 298.356 26.112C299.171 26.3448 299.866 26.637 300.443 26.9888C300.881 27.256 300.946 27.8383 300.649 28.2566L280.595 56.5037C280.347 56.853 280.349 57.3215 280.6 57.6686L303.131 88.8174C303.407 89.1993 303.385 89.7299 303.024 90.0337C302.361 90.5932 301.573 91.0033 300.66 91.264C299.551 91.6907 298.484 91.904 297.46 91.904C296.095 91.904 294.729 91.6053 293.364 91.008C291.999 90.496 291.017 89.7707 290.42 88.832L274.48 65.591C274.082 65.0106 273.225 65.0121 272.828 65.5939L257.012 88.832C256.329 89.856 255.391 90.624 254.196 91.136C253.001 91.648 251.764 91.904 250.484 91.904Z" fill="white"/>
<path d="M228.968 16C226.579 16 224.573 15.232 222.952 13.696C221.331 12.16 220.52 10.24 220.52 7.936C220.52 5.632 221.331 3.75467 222.952 2.304C224.573 0.768 226.579 0 228.968 0C231.272 0 233.235 0.768 234.856 2.304C236.477 3.75467 237.288 5.632 237.288 7.936C237.288 10.24 236.477 12.16 234.856 13.696C233.235 15.232 231.272 16 228.968 16Z" fill="#FF7B00"/>
<path d="M87.828 16C85.4387 16 83.4333 15.232 81.812 13.696C80.1907 12.16 79.38 10.24 79.38 7.936C79.38 5.632 80.1907 3.75467 81.812 2.304C83.4333 0.768 85.4387 0 87.828 0C90.132 0 92.0947 0.768 93.716 2.304C95.3373 3.75467 96.148 5.632 96.148 7.936C96.148 10.24 95.3373 12.16 93.716 13.696C92.0947 15.232 90.132 16 87.828 16Z" fill="#FF7B00"/>
<path d="M134.482 91.904C128.423 91.904 123.901 90.1973 120.914 86.784C117.927 83.2853 116.434 78.72 116.434 73.088V36.712C116.434 36.1597 115.986 35.712 115.434 35.712H105.53C104.978 35.712 104.526 35.2636 104.557 34.7122C104.69 32.2959 105.321 30.4105 106.45 29.056C107.73 27.52 109.479 26.752 111.698 26.752H115.562C116.114 26.752 116.562 26.3043 116.562 25.752V14.592C116.562 11.776 117.458 9.728 119.25 8.44801C120.953 7.20956 123.393 6.53279 126.57 6.41769C127.122 6.3977 127.57 6.84772 127.57 7.4V25.752C127.57 26.3043 128.018 26.752 128.57 26.752H143.594C144.146 26.752 144.598 27.2012 144.567 27.7527C144.276 33.0589 141.597 35.712 136.53 35.712H128.698C128.146 35.712 127.698 36.1597 127.698 36.712V72.704C127.698 76.1173 128.295 78.5493 129.49 80C130.77 81.3653 133.031 82.048 136.274 82.048C139.009 82.048 141.6 81.4041 144.049 80.1164C144.45 79.9053 144.954 79.9616 145.226 80.3245C145.999 81.3566 146.386 82.6565 146.386 84.224C146.386 86.272 145.319 88.064 143.186 89.6C141.053 91.136 138.151 91.904 134.482 91.904Z" fill="white"/>
<path d="M82.196 33.792C82.196 30.976 83.092 28.928 84.884 27.648C86.5908 26.4067 89.0734 25.7297 92.332 25.6169C92.8839 25.5978 93.332 26.0477 93.332 26.6V83.712C93.332 86.528 92.3933 88.6187 90.516 89.984C88.887 91.1476 86.447 91.7823 83.1961 91.8881C82.6441 91.9061 82.196 91.4563 82.196 90.904V33.792Z" fill="white"/>
<path d="M223.336 33.792C223.336 30.976 224.232 28.928 226.024 27.648C227.731 26.4067 230.213 25.7297 233.472 25.6169C234.024 25.5978 234.472 26.0477 234.472 26.6V83.712C234.472 86.528 233.533 88.6187 231.656 89.984C230.027 91.1476 227.587 91.7823 224.336 91.8881C223.784 91.9061 223.336 91.4563 223.336 90.904V33.792Z" fill="white"/>
</svg>
